{
    "asset" : {
        "generator" : "Khronos glTF Blender I/O v1.6.16",
        "version" : "2.0"
    },
    "scene" : 0,
    "scenes" : [
        {
            "name" : "Scene",
            "nodes" : [
                0
            ]
        }
    ],
    "nodes" : [
        {
            "mesh" : 0,
            "name" : "credit_stacks_green"
        }
    ],
    "meshes" : [
        {
            "name" : "Cube.140",
            "primitives" : [
                {
                    "attributes" : {
                        "POSITION" : 0,
                        "NORMAL" : 1,
                        "TEXCOORD_0" : 2
                    },
                    "indices" : 3
                },
                {
                    "attributes" : {
                        "POSITION" : 4,
                        "NORMAL" : 5,
                        "TEXCOORD_0" : 6
                    },
                    "indices" : 7
                }
            ]
        }
    ],
    "accessors" : [
        {
            "bufferView" : 0,
            "componentType" : 5126,
            "count" : 2026,
            "max" : [
                0.3106798231601715,
                0.18111951649188995,
                0.36703845858573914
            ],
            "min" : [
                -0.3157707452774048,
                -0.15133918821811676,
                -0.37289977073669434
            ],
            "type" : "VEC3"
        },
        {
            "bufferView" : 1,
            "componentType" : 5126,
            "count" : 2026,
            "type" : "VEC3"
        },
        {
            "bufferView" : 2,
            "componentType" : 5126,
            "count" : 2026,
            "type" : "VEC2"
        },
        {
            "bufferView" : 3,
            "componentType" : 5123,
            "count" : 6792,
            "type" : "SCALAR"
        },
        {
            "bufferView" : 4,
            "componentType" : 5126,
            "count" : 1264,
            "max" : [
                0.2855272591114044,
                0.1773771047592163,
                0.2432824820280075
            ],
            "min" : [
                -0.2906181812286377,
                -0.16333851218223572,
                -0.2513396143913269
            ],
            "type" : "VEC3"
        },
        {
            "bufferView" : 5,
            "componentType" : 5126,
            "count" : 1264,
            "type" : "VEC3"
        },
        {
            "bufferView" : 6,
            "componentType" : 5126,
            "count" : 1264,
            "type" : "VEC2"
        },
        {
            "bufferView" : 7,
            "componentType" : 5123,
            "count" : 2832,
            "type" : "SCALAR"
        }
    ],
    "bufferViews" : [
        {
            "buffer" : 0,
            "byteLength" : 24312,
            "byteOffset" : 0
        },
        {
            "buffer" : 0,
            "byteLength" : 24312,
            "byteOffset" : 24312
        },
        {
            "buffer" : 0,
            "byteLength" : 16208,
            "byteOffset" : 48624
        },
        {
            "buffer" : 0,
            "byteLength" : 13584,
            "byteOffset" : 64832
        },
        {
            "buffer" : 0,
            "byteLength" : 15168,
            "byteOffset" : 78416
        },
        {
            "buffer" : 0,
            "byteLength" : 15168,
            "byteOffset" : 93584
        },
        {
            "buffer" : 0,
            "byteLength" : 10112,
            "byteOffset" : 108752
        },
        {
            "buffer" : 0,
            "byteLength" : 5664,
            "byteOffset" : 118864
        }
    ],
    "buffers" : [
        {
            "byteLength" : 124528,
            "uri" : "data:application/octet-stream;base64,"
        }
    ]
}
