{
    "asset" : {
        "generator" : "Khronos glTF Blender I/O v1.6.16",
        "version" : "2.0"
    },
    "scene" : 0,
    "scenes" : [
        {
            "name" : "Scene",
            "nodes" : [
                0
            ]
        }
    ],
    "nodes" : [
        {
            "mesh" : 0,
            "name" : "credit_green"
        }
    ],
    "meshes" : [
        {
            "name" : "Cube.139",
            "primitives" : [
                {
                    "attributes" : {
                        "POSITION" : 0,
                        "NORMAL" : 1,
                        "TEXCOORD_0" : 2
                    },
                    "indices" : 3
                },
                {
                    "attributes" : {
                        "POSITION" : 4,
                        "NORMAL" : 5,
                        "TEXCOORD_0" : 6
                    },
                    "indices" : 7
                }
            ]
        }
    ],
    "accessors" : [
        {
            "bufferView" : 0,
            "componentType" : 5126,
            "count" : 498,
            "max" : [
                0.24492408335208893,
                0.3304601311683655,
                0.030672436580061913
            ],
            "min" : [
                -0.2449241578578949,
                -0.3304600119590759,
                -0.03067265823483467
            ],
            "type" : "VEC3"
        },
        {
            "bufferView" : 1,
            "componentType" : 5126,
            "count" : 498,
            "type" : "VEC3"
        },
        {
            "bufferView" : 2,
            "componentType" : 5126,
            "count" : 498,
            "type" : "VEC2"
        },
        {
            "bufferView" : 3,
            "componentType" : 5123,
            "count" : 1698,
            "type" : "SCALAR"
        },
        {
            "bufferView" : 4,
            "componentType" : 5126,
            "count" : 316,
            "max" : [
                0.24492408335208893,
                0.18493905663490295,
                0.04282145947217941
            ],
            "min" : [
                -0.2449241578578949,
                -0.1849389374256134,
                -0.042822349816560745
            ],
            "type" : "VEC3"
        },
        {
            "bufferView" : 5,
            "componentType" : 5126,
            "count" : 316,
            "type" : "VEC3"
        },
        {
            "bufferView" : 6,
            "componentType" : 5126,
            "count" : 316,
            "type" : "VEC2"
        },
        {
            "bufferView" : 7,
            "componentType" : 5123,
            "count" : 708,
            "type" : "SCALAR"
        }
    ],
    "bufferViews" : [
        {
            "buffer" : 0,
            "byteLength" : 5976,
            "byteOffset" : 0
        },
        {
            "buffer" : 0,
            "byteLength" : 5976,
            "byteOffset" : 5976
        },
        {
            "buffer" : 0,
            "byteLength" : 3984,
            "byteOffset" : 11952
        },
        {
            "buffer" : 0,
            "byteLength" : 3396,
            "byteOffset" : 15936
        },
        {
            "buffer" : 0,
            "byteLength" : 3792,
            "byteOffset" : 19332
        },
        {
            "buffer" : 0,
            "byteLength" : 3792,
            "byteOffset" : 23124
        },
        {
            "buffer" : 0,
            "byteLength" : 2528,
            "byteOffset" : 26916
        },
        {
            "buffer" : 0,
            "byteLength" : 1416,
            "byteOffset" : 29444
        }
    ],
    "buffers" : [
        {
            "byteLength" : 30860,
            "uri" : "data:application/octet-stream;base64,"
        }
    ]
}
