{
    "asset" : {
        "generator" : "Khronos glTF Blender I/O v1.6.16",
        "version" : "2.0"
    },
    "scene" : 0,
    "scenes" : [
        {
            "name" : "Scene",
            "nodes" : [
                0
            ]
        }
    ],
    "nodes" : [
        {
            "mesh" : 0,
            "name" : "crate_green"
        }
    ],
    "meshes" : [
        {
            "name" : "Cube",
            "primitives" : [
                {
                    "attributes" : {
                        "POSITION" : 0,
                        "NORMAL" : 1,
                        "TEXCOORD_0" : 2
                    },
                    "indices" : 3
                },
                {
                    "attributes" : {
                        "POSITION" : 4,
                        "NORMAL" : 5,
                        "TEXCOORD_0" : 6
                    },
                    "indices" : 7
                },
                {
                    "attributes" : {
                        "POSITION" : 8,
                        "NORMAL" : 9,
                        "TEXCOORD_0" : 10
                    },
                    "indices" : 11
                }
            ]
        }
    ],
    "accessors" : [
        {
            "bufferView" : 0,
            "componentType" : 5126,
            "count" : 3712,
            "max" : [
                0.25,
                0.25,
                0.25
            ],
            "min" : [
                -0.2500000298023224,
                -0.25,
                -0.2500000298023224
            ],
            "type" : "VEC3"
        },
        {
            "bufferView" : 1,
            "componentType" : 5126,
            "count" : 3712,
            "type" : "VEC3"
        },
        {
            "bufferView" : 2,
            "componentType" : 5126,
            "count" : 3712,
            "type" : "VEC2"
        },
        {
            "bufferView" : 3,
            "componentType" : 5123,
            "count" : 11664,
            "type" : "SCALAR"
        },
        {
            "bufferView" : 4,
            "componentType" : 5126,
            "count" : 40,
            "max" : [
                0.25,
                0.005643188953399658,
                0.25
            ],
            "min" : [
                -0.2500000298023224,
                -0.005643188953399658,
                -0.2500000298023224
            ],
            "type" : "VEC3"
        },
        {
            "bufferView" : 5,
            "componentType" : 5126,
            "count" : 40,
            "type" : "VEC3"
        },
        {
            "bufferView" : 6,
            "componentType" : 5126,
            "count" : 40,
            "type" : "VEC2"
        },
        {
            "bufferView" : 7,
            "componentType" : 5123,
            "count" : 96,
            "type" : "SCALAR"
        },
        {
            "bufferView" : 8,
            "componentType" : 5126,
            "count" : 288,
            "max" : [
                0.25,
                0.25,
                0.25
            ],
            "min" : [
                -0.2500000298023224,
                -0.25,
                -0.2500000298023224
            ],
            "type" : "VEC3"
        },
        {
            "bufferView" : 9,
            "componentType" : 5126,
            "count" : 288,
            "type" : "VEC3"
        },
        {
            "bufferView" : 10,
            "componentType" : 5126,
            "count" : 288,
            "type" : "VEC2"
        },
        {
            "bufferView" : 11,
            "componentType" : 5123,
            "count" : 744,
            "type" : "SCALAR"
        }
    ],
    "bufferViews" : [
        {
            "buffer" : 0,
            "byteLength" : 44544,
            "byteOffset" : 0
        },
        {
            "buffer" : 0,
            "byteLength" : 44544,
            "byteOffset" : 44544
        },
        {
            "buffer" : 0,
            "byteLength" : 29696,
            "byteOffset" : 89088
        },
        {
            "buffer" : 0,
            "byteLength" : 23328,
            "byteOffset" : 118784
        },
        {
            "buffer" : 0,
            "byteLength" : 480,
            "byteOffset" : 142112
        },
        {
            "buffer" : 0,
            "byteLength" : 480,
            "byteOffset" : 142592
        },
        {
            "buffer" : 0,
            "byteLength" : 320,
            "byteOffset" : 143072
        },
        {
            "buffer" : 0,
            "byteLength" : 192,
            "byteOffset" : 143392
        },
        {
            "buffer" : 0,
            "byteLength" : 3456,
            "byteOffset" : 143584
        },
        {
            "buffer" : 0,
            "byteLength" : 3456,
            "byteOffset" : 147040
        },
        {
            "buffer" : 0,
            "byteLength" : 2304,
            "byteOffset" : 150496
        },
        {
            "buffer" : 0,
            "byteLength" : 1488,
            "byteOffset" : 152800
        }
    ],
    "buffers" : [
        {
            "byteLength" : 154288,
            "uri" : "data:application/octet-stream;base64,"
        }
    ]
}
