<?xml version="1.0" encoding="UTF-8" standalone="no"?>
<!-- Created with Inkscape (http://www.inkscape.org/) -->

<svg
   width="64"
   height="64"
   viewBox="0 0 16.933333 16.933334"
   version="1.1"
   id="svg5"
   inkscape:version="1.1 (c68e22c387, 2021-05-23)"
   sodipodi:docname="snow-flake.svg"
   xmlns:inkscape="http://www.inkscape.org/namespaces/inkscape"
   xmlns:sodipodi="http://sodipodi.sourceforge.net/DTD/sodipodi-0.dtd"
   xmlns="http://www.w3.org/2000/svg"
   xmlns:svg="http://www.w3.org/2000/svg">
  <sodipodi:namedview
     id="namedview7"
     pagecolor="#505050"
     bordercolor="#eeeeee"
     borderopacity="1"
     inkscape:pageshadow="0"
     inkscape:pageopacity="0"
     inkscape:pagecheckerboard="0"
     inkscape:document-units="px"
     showgrid="false"
     units="px"
     width="64px"
     inkscape:snap-bbox="true"
     inkscape:snap-intersection-paths="true"
     inkscape:snap-smooth-nodes="true"
     inkscape:snap-midpoints="true"
     inkscape:bbox-paths="true"
     inkscape:bbox-nodes="true"
     inkscape:snap-bbox-edge-midpoints="true"
     inkscape:snap-bbox-midpoints="true"
     inkscape:snap-object-midpoints="true"
     inkscape:snap-center="true"
     showguides="true"
     inkscape:guide-bbox="true"
     inkscape:snap-global="true"
     inkscape:zoom="6.1789562"
     inkscape:cx="8.8202599"
     inkscape:cy="18.692477"
     inkscape:window-width="1920"
     inkscape:window-height="1022"
     inkscape:window-x="0"
     inkscape:window-y="30"
     inkscape:window-maximized="1"
     inkscape:current-layer="layer1">
    <sodipodi:guide
       position="19.438708,-0.84006482"
       orientation="0,-1"
       id="guide1716" />
  </sodipodi:namedview>
  <defs
     id="defs2" />
  <g
     inkscape:label="Layer 1"
     inkscape:groupmode="layer"
     id="layer1">
    <path
       id="path2444"
       style="color:#000000;fill:#ffffff;stroke-width:1;stroke-linecap:round;-inkscape-stroke:none"
       d="m 6.3250346,6.1567463 a 0.1322915,0.1322915 0 0 0 -0.058801,0.081088 0.1322915,0.1322915 0 0 0 0.095577,0.1614238 l 0.8570427,0.2152687 a 0.1322915,0.1322915 0 0 0 0.028924,0.00359 l 0.7237281,1.2535338 a 0.1322915,0.1322915 0 0 0 0.1785992,0.047853 0.1322915,0.1322915 0 0 0 0.049645,-0.1796298 l -0.72347,-1.2530869 a 0.1322915,0.1322915 0 0 0 0.011542,-0.027549 L 7.7299153,5.609383 A 0.1322915,0.1322915 0 0 0 7.6379065,5.4458991 0.1322915,0.1322915 0 0 0 7.537834,5.4565365 0.1322915,0.1322915 0 0 0 7.4733861,5.5361115 L 7.2448501,6.3494973 6.4248237,6.1414992 a 0.1322915,0.1322915 0 0 0 -0.099795,0.015251 z" />
    <path
       id="path1352"
       style="color:#000000;fill:#ffffff;stroke-width:3.77953;stroke-linecap:round;-inkscape-stroke:none"
       d="M 32.023438,1.8671875 A 1.0000006,1.0000006 0 0 0 31.019531,2.8632812 V 12.900391 L 23.873047,5.765625 a 1.0000006,1.0000006 0 0 0 -1.410156,0 1.0000006,1.0000006 0 0 0 0,1.4160156 l 8.55664,8.5429684 v 14.023438 c 0.509615,-0.0192 1.519658,-0.0183 2,0.002 V 15.78125 l 8.517578,-8.5019531 a 1.0000006,1.0000006 0 0 0 0,-1.4179688 1.0000006,1.0000006 0 0 0 -1.416015,0 L 33.019531,12.957031 V 2.8632812 A 1.0000006,1.0000006 0 0 0 32.023438,1.8671875 Z m 17.568359,8.7382815 a 1.0000006,1.0000006 0 0 0 -0.833985,0.732422 l -3.130859,11.669921 -12.167969,7.015626 c 0.271159,0.431079 0.777132,1.307759 1,1.734374 l 12.107422,-6.984374 11.640625,3.115234 a 1.0000006,1.0000006 0 0 0 1.22461,-0.708984 1.0000006,1.0000006 0 0 0 -0.708985,-1.22461 l -9.695312,-2.59375 8.74414,-5.046875 a 1.0000006,1.0000006 0 0 0 0.369141,-1.365234 1.0000006,1.0000006 0 0 0 -0.613281,-0.464844 1.0000006,1.0000006 0 0 0 -0.753906,0.103516 l -8.699219,5.011718 2.609375,-9.74414 a 1.0000006,1.0000006 0 0 0 -0.701172,-1.22461 1.0000006,1.0000006 0 0 0 -0.390625,-0.02539 z m -35.095703,0.05078 a 1.0000006,1.0000006 0 0 0 -0.388672,0.02539 1.0000006,1.0000006 0 0 0 -0.708984,1.224609 l 2.599609,9.689453 -8.7500001,-5.044922 A 1.0000006,1.0000006 0 0 0 6.4882812,16.447264 1.0000006,1.0000006 0 0 0 5.8828125,16.91992 1.0000006,1.0000006 0 0 0 6.2519531,18.285154 l 8.6933589,5.011719 -9.7558589,2.613281 a 1.0000006,1.0000006 0 0 0 -0.7089843,1.21875 1.0000006,1.0000006 0 0 0 1.2265624,0.708985 l 11.6933598,-3.126953 12.158203,7.011718 c 0.237435,-0.449548 0.741471,-1.318936 1,-1.726562 L 18.445312,23.011719 15.332031,11.390625 A 1.0000006,1.0000006 0 0 0 14.496094,10.65625 Z M 29.539062,32.240234 17.429688,39.224609 5.7949219,36.111328 a 1.0000006,1.0000006 0 0 0 -1.2246094,0.708984 1.0000006,1.0000006 0 0 0 0.7070313,1.226563 l 9.6953122,2.59375 -8.7421872,5.044922 a 1.0000006,1.0000006 0 0 0 -0.3691407,1.367187 1.0000006,1.0000006 0 0 0 1.3652344,0.361328 l 8.6992185,-5.011718 -2.609375,9.74414 a 1.0000006,1.0000006 0 0 0 0.701172,1.22461 1.0000006,1.0000006 0 0 0 1.226563,-0.708985 l 3.132812,-11.677734 12.162109,-7.007813 c -0.271812,-0.432227 -0.77797,-1.310979 -1,-1.736328 z m 4.902344,0.03711 c -0.237876,0.450382 -0.743915,1.321962 -1.001953,1.728515 l 12.109375,6.984375 3.119141,11.621094 a 1.0000006,1.0000006 0 0 0 1.226562,0.708984 1.0000006,1.0000006 0 0 0 0.708985,-1.226562 l -2.601563,-9.6875 8.75,5.044922 a 1.0000006,1.0000006 0 0 0 1.365235,-0.369141 1.0000006,1.0000006 0 0 0 -0.369141,-1.365234 l -8.691406,-5.011719 9.753906,-2.615234 a 1.0000006,1.0000006 0 0 0 0.708984,-1.22461 1.0000006,1.0000006 0 0 0 -1.224609,-0.701172 l -11.685547,3.125 z M 30.982422,34.25 v 13.966797 l -8.519531,8.505859 a 1.0000006,1.0000006 0 0 0 0,1.417969 1.0000006,1.0000006 0 0 0 1.410156,0 l 7.109375,-7.097656 v 10.09375 a 1.0000006,1.0000006 0 0 0 0.996094,0.996093 1.0000006,1.0000006 0 0 0 1.003906,-0.996093 V 51.103516 l 7.138672,7.132812 a 1.0000006,1.0000006 0 0 0 1.416015,0 1.0000006,1.0000006 0 0 0 0,-1.417969 L 32.982422,48.277344 V 34.25 c -0.508161,0.01925 -1.518135,0.0202 -2,0 z"
       transform="scale(0.26458334)" />
    <path
       id="path2966"
       style="color:#000000;fill:#ffffff;stroke-width:1;stroke-linecap:round;-inkscape-stroke:none"
       d="m 10.61295,6.1639816 a 0.1322915,0.1322915 0 0 1 0.0588,0.081088 0.1322915,0.1322915 0 0 1 -0.09558,0.1614238 L 9.7191313,6.6217621 a 0.1322915,0.1322915 0 0 1 -0.028924,0.00359 L 8.9664792,7.8788859 A 0.1322915,0.1322915 0 0 1 8.78788,7.9267389 0.1322915,0.1322915 0 0 1 8.738235,7.7471091 L 9.461705,6.4940222 A 0.1322915,0.1322915 0 0 1 9.450163,6.4664732 L 9.2080693,5.6166183 a 0.1322915,0.1322915 0 0 1 0.092009,-0.1634839 0.1322915,0.1322915 0 0 1 0.1000725,0.010637 0.1322915,0.1322915 0 0 1 0.064448,0.079575 l 0.228536,0.8133858 0.8200262,-0.2079981 a 0.1322915,0.1322915 0 0 1 0.0998,0.015251 z" />
    <path
       id="path3048"
       style="color:#000000;fill:#ffffff;stroke-width:1;stroke-linecap:round;-inkscape-stroke:none"
       d="m 11.530343,9.1671352 a 0.1322915,0.1322915 0 0 1 -0.04082,0.091466 0.1322915,0.1322915 0 0 1 -0.187587,-0.00206 L 10.686984,8.6219558 a 0.1322915,0.1322915 0 0 1 -0.01757,-0.023254 H 9.2219566 A 0.1322915,0.1322915 0 0 1 9.0912156,8.4679569 0.1322915,0.1322915 0 0 1 9.2219566,8.3351482 l 1.4469404,-1e-7 a 0.1322915,0.1322915 0 0 1 0.01809,-0.02377 l 0.61495,-0.6345869 a 0.1322915,0.1322915 0 0 1 0.187585,-0.00206 0.1322915,0.1322915 0 0 1 0.04083,0.091984 0.1322915,0.1322915 0 0 1 -0.03669,0.095601 l -0.59015,0.604611 0.590145,0.6061645 a 0.1322915,0.1322915 0 0 1 0.03669,0.094055 z" />
    <path
       id="path3050"
       style="color:#000000;fill:#ffffff;stroke-width:1;stroke-linecap:round;-inkscape-stroke:none"
       d="m 5.4082911,9.1671352 a 0.1322915,0.1322915 0 0 0 0.04082,0.091466 0.1322915,0.1322915 0 0 0 0.187587,-0.00206 l 0.614952,-0.6345854 a 0.1322915,0.1322915 0 0 0 0.01757,-0.023254 H 7.7166772 A 0.1322915,0.1322915 0 0 0 7.8474182,8.4679569 0.1322915,0.1322915 0 0 0 7.7166772,8.3351482 l -1.4469401,-1e-7 a 0.1322915,0.1322915 0 0 0 -0.01809,-0.02377 l -0.61495,-0.6345869 a 0.1322915,0.1322915 0 0 0 -0.187585,-0.00206 0.1322915,0.1322915 0 0 0 -0.04083,0.091984 0.1322915,0.1322915 0 0 0 0.03669,0.095601 l 0.59015,0.604611 -0.590145,0.6061645 a 0.1322915,0.1322915 0 0 0 -0.03669,0.094055 z" />
    <path
       id="path3052"
       style="color:#000000;fill:#ffffff;stroke-width:1;stroke-linecap:round;-inkscape-stroke:none"
       d="m 6.3198667,10.769352 a 0.1322915,0.1322915 0 0 1 -0.058801,-0.08109 0.1322915,0.1322915 0 0 1 0.095577,-0.161424 l 0.8570427,-0.215267 a 0.1322915,0.1322915 0 0 1 0.028924,-0.0036 L 7.9663375,9.0544479 a 0.1322915,0.1322915 0 0 1 0.1785992,-0.047853 0.1322915,0.1322915 0 0 1 0.049645,0.1796298 l -0.72347,1.2530863 a 0.1322915,0.1322915 0 0 1 0.011542,0.02755 l 0.2420937,0.849855 A 0.1322915,0.1322915 0 0 1 7.6327384,11.4802 0.1322915,0.1322915 0 0 1 7.5326659,11.46956 0.1322915,0.1322915 0 0 1 7.4682179,11.38998 L 7.2396822,10.576601 6.4196558,10.784599 a 0.1322915,0.1322915 0 0 1 -0.099795,-0.01525 z" />
    <path
       id="path3054"
       style="color:#000000;fill:#ffffff;stroke-width:1;stroke-linecap:round;-inkscape-stroke:none"
       d="m 10.607782,10.777104 a 0.1322915,0.1322915 0 0 0 0.0588,-0.08109 0.1322915,0.1322915 0 0 0 -0.09558,-0.161424 L 9.7139638,10.319323 a 0.1322915,0.1322915 0 0 0 -0.028924,-0.0036 L 8.9613117,9.0621994 A 0.1322915,0.1322915 0 0 0 8.7827125,9.0143464 0.1322915,0.1322915 0 0 0 8.7330675,9.1939762 l 0.72347,1.2530868 a 0.1322915,0.1322915 0 0 0 -0.011542,0.02755 l -0.2420937,0.849855 a 0.1322915,0.1322915 0 0 0 0.092009,0.163484 0.1322915,0.1322915 0 0 0 0.1000725,-0.01064 0.1322915,0.1322915 0 0 0 0.064448,-0.07958 l 0.2285357,-0.813379 0.820026,0.207998 a 0.1322915,0.1322915 0 0 0 0.09979,-0.01525 z" />
  </g>
</svg>
