{
    "asset" : {
        "generator" : "Khronos glTF Blender I/O v1.6.16",
        "version" : "2.0"
    },
    "scene" : 0,
    "scenes" : [
        {
            "name" : "Scene",
            "nodes" : [
                1
            ]
        }
    ],
    "nodes" : [
        {
            "mesh" : 0,
            "name" : "chest_lid_white",
            "translation" : [
                0,
                0.6205291748046875,
                -0.4692610204219818
            ]
        },
        {
            "children" : [
                0
            ],
            "mesh" : 1,
            "name" : "chest_white"
        }
    ],
    "meshes" : [
        {
            "name" : "Cube.135",
            "primitives" : [
                {
                    "attributes" : {
                        "POSITION" : 0,
                        "NORMAL" : 1,
                        "TEXCOORD_0" : 2
                    },
                    "indices" : 3
                },
                {
                    "attributes" : {
                        "POSITION" : 4,
                        "NORMAL" : 5,
                        "TEXCOORD_0" : 6
                    },
                    "indices" : 7
                },
                {
                    "attributes" : {
                        "POSITION" : 8,
                        "NORMAL" : 9,
                        "TEXCOORD_0" : 10
                    },
                    "indices" : 11
                }
            ]
        },
        {
            "name" : "Cube.134",
            "primitives" : [
                {
                    "attributes" : {
                        "POSITION" : 12,
                        "NORMAL" : 13,
                        "TEXCOORD_0" : 14
                    },
                    "indices" : 15
                },
                {
                    "attributes" : {
                        "POSITION" : 16,
                        "NORMAL" : 17,
                        "TEXCOORD_0" : 18
                    },
                    "indices" : 19
                }
            ]
        }
    ],
    "accessors" : [
        {
            "bufferView" : 0,
            "componentType" : 5126,
            "count" : 990,
            "max" : [
                0.7682974934577942,
                0.3411235809326172,
                1.0284161567687988
            ],
            "min" : [
                -0.7682971954345703,
                3.8743019104003906e-07,
                -0.08989393711090088
            ],
            "type" : "VEC3"
        },
        {
            "bufferView" : 1,
            "componentType" : 5126,
            "count" : 990,
            "type" : "VEC3"
        },
        {
            "bufferView" : 2,
            "componentType" : 5126,
            "count" : 990,
            "type" : "VEC2"
        },
        {
            "bufferView" : 3,
            "componentType" : 5123,
            "count" : 3036,
            "type" : "SCALAR"
        },
        {
            "bufferView" : 4,
            "componentType" : 5126,
            "count" : 64,
            "max" : [
                0.7281995415687561,
                0.13122966885566711,
                0.9883182644844055
            ],
            "min" : [
                -0.7281992435455322,
                0.07062818855047226,
                -0.0497959703207016
            ],
            "type" : "VEC3"
        },
        {
            "bufferView" : 5,
            "componentType" : 5126,
            "count" : 64,
            "type" : "VEC3"
        },
        {
            "bufferView" : 6,
            "componentType" : 5126,
            "count" : 64,
            "type" : "VEC2"
        },
        {
            "bufferView" : 7,
            "componentType" : 5123,
            "count" : 168,
            "type" : "SCALAR"
        },
        {
            "bufferView" : 8,
            "componentType" : 5126,
            "count" : 43,
            "max" : [
                0.6091189980506897,
                0.2961987257003784,
                0.8815516233444214
            ],
            "min" : [
                -0.6091187000274658,
                3.8743019104003906e-07,
                0.05697053670883179
            ],
            "type" : "VEC3"
        },
        {
            "bufferView" : 9,
            "componentType" : 5126,
            "count" : 43,
            "type" : "VEC3"
        },
        {
            "bufferView" : 10,
            "componentType" : 5126,
            "count" : 43,
            "type" : "VEC2"
        },
        {
            "bufferView" : 11,
            "componentType" : 5123,
            "count" : 120,
            "type" : "SCALAR"
        },
        {
            "bufferView" : 12,
            "componentType" : 5126,
            "count" : 836,
            "max" : [
                0.7682974934577942,
                0.6205295324325562,
                0.6678222417831421
            ],
            "min" : [
                -0.7682971954345703,
                -1.4901161193847656e-07,
                -0.6114975810050964
            ],
            "type" : "VEC3"
        },
        {
            "bufferView" : 13,
            "componentType" : 5126,
            "count" : 836,
            "type" : "VEC3"
        },
        {
            "bufferView" : 14,
            "componentType" : 5126,
            "count" : 836,
            "type" : "VEC2"
        },
        {
            "bufferView" : 15,
            "componentType" : 5123,
            "count" : 2442,
            "type" : "SCALAR"
        },
        {
            "bufferView" : 16,
            "componentType" : 5126,
            "count" : 72,
            "max" : [
                0.6183421611785889,
                0.6205295324325562,
                0.41048750281333923
            ],
            "min" : [
                -0.6183423399925232,
                -1.4901161193847656e-07,
                -0.41048765182495117
            ],
            "type" : "VEC3"
        },
        {
            "bufferView" : 17,
            "componentType" : 5126,
            "count" : 72,
            "type" : "VEC3"
        },
        {
            "bufferView" : 18,
            "componentType" : 5126,
            "count" : 72,
            "type" : "VEC2"
        },
        {
            "bufferView" : 19,
            "componentType" : 5123,
            "count" : 228,
            "type" : "SCALAR"
        }
    ],
    "bufferViews" : [
        {
            "buffer" : 0,
            "byteLength" : 11880,
            "byteOffset" : 0
        },
        {
            "buffer" : 0,
            "byteLength" : 11880,
            "byteOffset" : 11880
        },
        {
            "buffer" : 0,
            "byteLength" : 7920,
            "byteOffset" : 23760
        },
        {
            "buffer" : 0,
            "byteLength" : 6072,
            "byteOffset" : 31680
        },
        {
            "buffer" : 0,
            "byteLength" : 768,
            "byteOffset" : 37752
        },
        {
            "buffer" : 0,
            "byteLength" : 768,
            "byteOffset" : 38520
        },
        {
            "buffer" : 0,
            "byteLength" : 512,
            "byteOffset" : 39288
        },
        {
            "buffer" : 0,
            "byteLength" : 336,
            "byteOffset" : 39800
        },
        {
            "buffer" : 0,
            "byteLength" : 516,
            "byteOffset" : 40136
        },
        {
            "buffer" : 0,
            "byteLength" : 516,
            "byteOffset" : 40652
        },
        {
            "buffer" : 0,
            "byteLength" : 344,
            "byteOffset" : 41168
        },
        {
            "buffer" : 0,
            "byteLength" : 240,
            "byteOffset" : 41512
        },
        {
            "buffer" : 0,
            "byteLength" : 10032,
            "byteOffset" : 41752
        },
        {
            "buffer" : 0,
            "byteLength" : 10032,
            "byteOffset" : 51784
        },
        {
            "buffer" : 0,
            "byteLength" : 6688,
            "byteOffset" : 61816
        },
        {
            "buffer" : 0,
            "byteLength" : 4884,
            "byteOffset" : 68504
        },
        {
            "buffer" : 0,
            "byteLength" : 864,
            "byteOffset" : 73388
        },
        {
            "buffer" : 0,
            "byteLength" : 864,
            "byteOffset" : 74252
        },
        {
            "buffer" : 0,
            "byteLength" : 576,
            "byteOffset" : 75116
        },
        {
            "buffer" : 0,
            "byteLength" : 456,
            "byteOffset" : 75692
        }
    ],
    "buffers" : [
        {
            "byteLength" : 76148,
            "uri" : "data:application/octet-stream;base64,"
        }
    ]
}
