{
    "asset" : {
        "generator" : "Khronos glTF Blender I/O v1.6.16",
        "version" : "2.0"
    },
    "scene" : 0,
    "scenes" : [
        {
            "name" : "Scene",
            "nodes" : [
                0
            ]
        }
    ],
    "nodes" : [
        {
            "mesh" : 0,
            "name" : "hoverboard_white"
        }
    ],
    "meshes" : [
        {
            "name" : "Cube.137",
            "primitives" : [
                {
                    "attributes" : {
                        "POSITION" : 0,
                        "NORMAL" : 1,
                        "TEXCOORD_0" : 2
                    },
                    "indices" : 3
                },
                {
                    "attributes" : {
                        "POSITION" : 4,
                        "NORMAL" : 5,
                        "TEXCOORD_0" : 6
                    },
                    "indices" : 7
                },
                {
                    "attributes" : {
                        "POSITION" : 8,
                        "NORMAL" : 9,
                        "TEXCOORD_0" : 10
                    },
                    "indices" : 11
                }
            ]
        }
    ],
    "accessors" : [
        {
            "bufferView" : 0,
            "componentType" : 5126,
            "count" : 1767,
            "max" : [
                0.41842448711395264,
                0.15339285135269165,
                1.2577577829360962
            ],
            "min" : [
                -0.41842448711395264,
                -0.2295665591955185,
                -1.2577577829360962
            ],
            "type" : "VEC3"
        },
        {
            "bufferView" : 1,
            "componentType" : 5126,
            "count" : 1767,
            "type" : "VEC3"
        },
        {
            "bufferView" : 2,
            "componentType" : 5126,
            "count" : 1767,
            "type" : "VEC2"
        },
        {
            "bufferView" : 3,
            "componentType" : 5123,
            "count" : 6876,
            "type" : "SCALAR"
        },
        {
            "bufferView" : 4,
            "componentType" : 5126,
            "count" : 526,
            "max" : [
                0.5660237669944763,
                0.13242867588996887,
                1.1770468950271606
            ],
            "min" : [
                -0.5203897356987,
                -0.15745770931243896,
                -1.1766055822372437
            ],
            "type" : "VEC3"
        },
        {
            "bufferView" : 5,
            "componentType" : 5126,
            "count" : 526,
            "type" : "VEC3"
        },
        {
            "bufferView" : 6,
            "componentType" : 5126,
            "count" : 526,
            "type" : "VEC2"
        },
        {
            "bufferView" : 7,
            "componentType" : 5123,
            "count" : 2409,
            "type" : "SCALAR"
        },
        {
            "bufferView" : 8,
            "componentType" : 5126,
            "count" : 64,
            "max" : [
                0.08816976100206375,
                -0.06236591190099716,
                1.0691211223602295
            ],
            "min" : [
                -0.08817022293806076,
                -0.11703996360301971,
                -1.0691211223602295
            ],
            "type" : "VEC3"
        },
        {
            "bufferView" : 9,
            "componentType" : 5126,
            "count" : 64,
            "type" : "VEC3"
        },
        {
            "bufferView" : 10,
            "componentType" : 5126,
            "count" : 64,
            "type" : "VEC2"
        },
        {
            "bufferView" : 11,
            "componentType" : 5123,
            "count" : 168,
            "type" : "SCALAR"
        }
    ],
    "bufferViews" : [
        {
            "buffer" : 0,
            "byteLength" : 21204,
            "byteOffset" : 0
        },
        {
            "buffer" : 0,
            "byteLength" : 21204,
            "byteOffset" : 21204
        },
        {
            "buffer" : 0,
            "byteLength" : 14136,
            "byteOffset" : 42408
        },
        {
            "buffer" : 0,
            "byteLength" : 13752,
            "byteOffset" : 56544
        },
        {
            "buffer" : 0,
            "byteLength" : 6312,
            "byteOffset" : 70296
        },
        {
            "buffer" : 0,
            "byteLength" : 6312,
            "byteOffset" : 76608
        },
        {
            "buffer" : 0,
            "byteLength" : 4208,
            "byteOffset" : 82920
        },
        {
            "buffer" : 0,
            "byteLength" : 4818,
            "byteOffset" : 87128
        },
        {
            "buffer" : 0,
            "byteLength" : 768,
            "byteOffset" : 91948
        },
        {
            "buffer" : 0,
            "byteLength" : 768,
            "byteOffset" : 92716
        },
        {
            "buffer" : 0,
            "byteLength" : 512,
            "byteOffset" : 93484
        },
        {
            "buffer" : 0,
            "byteLength" : 336,
            "byteOffset" : 93996
        }
    ],
    "buffers" : [
        {
            "byteLength" : 94332,
            "uri" : "data:application/octet-stream;base64,"
        }
    ]
}
