{
    "asset" : {
        "generator" : "Khronos glTF Blender I/O v1.6.16",
        "version" : "2.0"
    },
    "scene" : 0,
    "scenes" : [
        {
            "name" : "Scene",
            "nodes" : [
                0
            ]
        }
    ],
    "nodes" : [
        {
            "mesh" : 0,
            "name" : "platform_white"
        }
    ],
    "meshes" : [
        {
            "name" : "Cube.130",
            "primitives" : [
                {
                    "attributes" : {
                        "POSITION" : 0,
                        "NORMAL" : 1,
                        "TEXCOORD_0" : 2
                    },
                    "indices" : 3
                },
                {
                    "attributes" : {
                        "POSITION" : 4,
                        "NORMAL" : 5,
                        "TEXCOORD_0" : 6
                    },
                    "indices" : 7
                }
            ]
        }
    ],
    "accessors" : [
        {
            "bufferView" : 0,
            "componentType" : 5126,
            "count" : 48,
            "max" : [
                0.9455428123474121,
                0.016811981797218323,
                0.9455430507659912
            ],
            "min" : [
                -0.9455432891845703,
                -0.016812365502119064,
                -0.9455430507659912
            ],
            "type" : "VEC3"
        },
        {
            "bufferView" : 1,
            "componentType" : 5126,
            "count" : 48,
            "type" : "VEC3"
        },
        {
            "bufferView" : 2,
            "componentType" : 5126,
            "count" : 48,
            "type" : "VEC2"
        },
        {
            "bufferView" : 3,
            "componentType" : 5123,
            "count" : 168,
            "type" : "SCALAR"
        },
        {
            "bufferView" : 4,
            "componentType" : 5126,
            "count" : 892,
            "max" : [
                1,
                0.3754831850528717,
                1
            ],
            "min" : [
                -1,
                -0.19125616550445557,
                -1
            ],
            "type" : "VEC3"
        },
        {
            "bufferView" : 5,
            "componentType" : 5126,
            "count" : 892,
            "type" : "VEC3"
        },
        {
            "bufferView" : 6,
            "componentType" : 5126,
            "count" : 892,
            "type" : "VEC2"
        },
        {
            "bufferView" : 7,
            "componentType" : 5123,
            "count" : 4164,
            "type" : "SCALAR"
        }
    ],
    "bufferViews" : [
        {
            "buffer" : 0,
            "byteLength" : 576,
            "byteOffset" : 0
        },
        {
            "buffer" : 0,
            "byteLength" : 576,
            "byteOffset" : 576
        },
        {
            "buffer" : 0,
            "byteLength" : 384,
            "byteOffset" : 1152
        },
        {
            "buffer" : 0,
            "byteLength" : 336,
            "byteOffset" : 1536
        },
        {
            "buffer" : 0,
            "byteLength" : 10704,
            "byteOffset" : 1872
        },
        {
            "buffer" : 0,
            "byteLength" : 10704,
            "byteOffset" : 12576
        },
        {
            "buffer" : 0,
            "byteLength" : 7136,
            "byteOffset" : 23280
        },
        {
            "buffer" : 0,
            "byteLength" : 8328,
            "byteOffset" : 30416
        }
    ],
    "buffers" : [
        {
            "byteLength" : 38744,
            "uri" : "data:application/octet-stream;base64,"
        }
    ]
}
