{
    "asset" : {
        "generator" : "Khronos glTF Blender I/O v1.6.16",
        "version" : "2.0"
    },
    "scene" : 0,
    "scenes" : [
        {
            "name" : "Scene",
            "nodes" : [
                3
            ]
        }
    ],
    "nodes" : [
        {
            "mesh" : 0,
            "name" : "turret_cannon",
            "translation" : [
                0,
                -0.0022606849670410156,
                0.09156128764152527
            ]
        },
        {
            "children" : [
                0
            ],
            "mesh" : 1,
            "name" : "turret_center",
            "translation" : [
                0,
                1.3564023971557617,
                -0.0002967879408970475
            ]
        },
        {
            "children" : [
                1
            ],
            "mesh" : 2,
            "name" : "turret_housing"
        },
        {
            "children" : [
                2
            ],
            "mesh" : 3,
            "name" : "turret_base"
        }
    ],
    "meshes" : [
        {
            "name" : "Cylinder.079",
            "primitives" : [
                {
                    "attributes" : {
                        "POSITION" : 0,
                        "NORMAL" : 1,
                        "TEXCOORD_0" : 2
                    },
                    "indices" : 3
                },
                {
                    "attributes" : {
                        "POSITION" : 4,
                        "NORMAL" : 5,
                        "TEXCOORD_0" : 6
                    },
                    "indices" : 7
                },
                {
                    "attributes" : {
                        "POSITION" : 8,
                        "NORMAL" : 9,
                        "TEXCOORD_0" : 10
                    },
                    "indices" : 11
                }
            ]
        },
        {
            "name" : "Cylinder.080",
            "primitives" : [
                {
                    "attributes" : {
                        "POSITION" : 12,
                        "NORMAL" : 13,
                        "TEXCOORD_0" : 14
                    },
                    "indices" : 15
                },
                {
                    "attributes" : {
                        "POSITION" : 16,
                        "NORMAL" : 17,
                        "TEXCOORD_0" : 18
                    },
                    "indices" : 19
                }
            ]
        },
        {
            "name" : "Cylinder.061",
            "primitives" : [
                {
                    "attributes" : {
                        "POSITION" : 20,
                        "NORMAL" : 21,
                        "TEXCOORD_0" : 22
                    },
                    "indices" : 23
                },
                {
                    "attributes" : {
                        "POSITION" : 24,
                        "NORMAL" : 25,
                        "TEXCOORD_0" : 26
                    },
                    "indices" : 27
                }
            ]
        },
        {
            "name" : "Cylinder.095",
            "primitives" : [
                {
                    "attributes" : {
                        "POSITION" : 28,
                        "NORMAL" : 29,
                        "TEXCOORD_0" : 30
                    },
                    "indices" : 31
                }
            ]
        }
    ],
    "accessors" : [
        {
            "bufferView" : 0,
            "componentType" : 5126,
            "count" : 775,
            "max" : [
                0.26525071263313293,
                0.4740566313266754,
                0.6569057703018188
            ],
            "min" : [
                -0.26525115966796875,
                -0.4740585386753082,
                -0.4740583002567291
            ],
            "type" : "VEC3"
        },
        {
            "bufferView" : 1,
            "componentType" : 5126,
            "count" : 775,
            "type" : "VEC3"
        },
        {
            "bufferView" : 2,
            "componentType" : 5126,
            "count" : 775,
            "type" : "VEC2"
        },
        {
            "bufferView" : 3,
            "componentType" : 5123,
            "count" : 2886,
            "type" : "SCALAR"
        },
        {
            "bufferView" : 4,
            "componentType" : 5126,
            "count" : 516,
            "max" : [
                0.3200884163379669,
                0.3761340081691742,
                0.6493725776672363
            ],
            "min" : [
                -0.3200877606868744,
                -0.376135915517807,
                -0.3761356770992279
            ],
            "type" : "VEC3"
        },
        {
            "bufferView" : 5,
            "componentType" : 5126,
            "count" : 516,
            "type" : "VEC3"
        },
        {
            "bufferView" : 6,
            "componentType" : 5126,
            "count" : 516,
            "type" : "VEC2"
        },
        {
            "bufferView" : 7,
            "componentType" : 5123,
            "count" : 1380,
            "type" : "SCALAR"
        },
        {
            "bufferView" : 8,
            "componentType" : 5126,
            "count" : 120,
            "max" : [
                0.09359945356845856,
                -0.12797680497169495,
                0.593622624874115
            ],
            "min" : [
                0.016713321208953857,
                -0.20486289262771606,
                0.5592594146728516
            ],
            "type" : "VEC3"
        },
        {
            "bufferView" : 9,
            "componentType" : 5126,
            "count" : 120,
            "type" : "VEC3"
        },
        {
            "bufferView" : 10,
            "componentType" : 5126,
            "count" : 120,
            "type" : "VEC2"
        },
        {
            "bufferView" : 11,
            "componentType" : 5123,
            "count" : 642,
            "type" : "SCALAR"
        },
        {
            "bufferView" : 12,
            "componentType" : 5126,
            "count" : 219,
            "max" : [
                0.49887898564338684,
                0.5682158470153809,
                0.49917590618133545
            ],
            "min" : [
                -0.49887964129447937,
                -0.5682221055030823,
                -0.49858230352401733
            ],
            "type" : "VEC3"
        },
        {
            "bufferView" : 13,
            "componentType" : 5126,
            "count" : 219,
            "type" : "VEC3"
        },
        {
            "bufferView" : 14,
            "componentType" : 5126,
            "count" : 219,
            "type" : "VEC2"
        },
        {
            "bufferView" : 15,
            "componentType" : 5123,
            "count" : 804,
            "type" : "SCALAR"
        },
        {
            "bufferView" : 16,
            "componentType" : 5126,
            "count" : 123,
            "max" : [
                0.3596650958061218,
                0.4976538121700287,
                0.49917590618133545
            ],
            "min" : [
                -0.35966575145721436,
                -0.5021751523017883,
                0.09250015765428543
            ],
            "type" : "VEC3"
        },
        {
            "bufferView" : 17,
            "componentType" : 5126,
            "count" : 123,
            "type" : "VEC3"
        },
        {
            "bufferView" : 18,
            "componentType" : 5126,
            "count" : 123,
            "type" : "VEC2"
        },
        {
            "bufferView" : 19,
            "componentType" : 5123,
            "count" : 360,
            "type" : "SCALAR"
        },
        {
            "bufferView" : 20,
            "componentType" : 5126,
            "count" : 709,
            "max" : [
                0.49887964129447937,
                2.853682041168213,
                0.5878798961639404
            ],
            "min" : [
                -0.49887898564338684,
                3.225325713174243e-07,
                -0.498879075050354
            ],
            "type" : "VEC3"
        },
        {
            "bufferView" : 21,
            "componentType" : 5126,
            "count" : 709,
            "type" : "VEC3"
        },
        {
            "bufferView" : 22,
            "componentType" : 5126,
            "count" : 709,
            "type" : "VEC2"
        },
        {
            "bufferView" : 23,
            "componentType" : 5123,
            "count" : 2322,
            "type" : "SCALAR"
        },
        {
            "bufferView" : 24,
            "componentType" : 5126,
            "count" : 12,
            "max" : [
                0.15481168031692505,
                2.4631316661834717,
                0.5056204199790955
            ],
            "min" : [
                -0.1548110842704773,
                2.231435775756836,
                0.5056204199790955
            ],
            "type" : "VEC3"
        },
        {
            "bufferView" : 25,
            "componentType" : 5126,
            "count" : 12,
            "type" : "VEC3"
        },
        {
            "bufferView" : 26,
            "componentType" : 5126,
            "count" : 12,
            "type" : "VEC2"
        },
        {
            "bufferView" : 27,
            "componentType" : 5123,
            "count" : 30,
            "type" : "SCALAR"
        },
        {
            "bufferView" : 28,
            "componentType" : 5126,
            "count" : 148,
            "max" : [
                0.742274284362793,
                0.1815379410982132,
                0.7422734498977661
            ],
            "min" : [
                -0.7422733306884766,
                -7.05540017520434e-08,
                -0.7422733902931213
            ],
            "type" : "VEC3"
        },
        {
            "bufferView" : 29,
            "componentType" : 5126,
            "count" : 148,
            "type" : "VEC3"
        },
        {
            "bufferView" : 30,
            "componentType" : 5126,
            "count" : 148,
            "type" : "VEC2"
        },
        {
            "bufferView" : 31,
            "componentType" : 5123,
            "count" : 480,
            "type" : "SCALAR"
        }
    ],
    "bufferViews" : [
        {
            "buffer" : 0,
            "byteLength" : 9300,
            "byteOffset" : 0
        },
        {
            "buffer" : 0,
            "byteLength" : 9300,
            "byteOffset" : 9300
        },
        {
            "buffer" : 0,
            "byteLength" : 6200,
            "byteOffset" : 18600
        },
        {
            "buffer" : 0,
            "byteLength" : 5772,
            "byteOffset" : 24800
        },
        {
            "buffer" : 0,
            "byteLength" : 6192,
            "byteOffset" : 30572
        },
        {
            "buffer" : 0,
            "byteLength" : 6192,
            "byteOffset" : 36764
        },
        {
            "buffer" : 0,
            "byteLength" : 4128,
            "byteOffset" : 42956
        },
        {
            "buffer" : 0,
            "byteLength" : 2760,
            "byteOffset" : 47084
        },
        {
            "buffer" : 0,
            "byteLength" : 1440,
            "byteOffset" : 49844
        },
        {
            "buffer" : 0,
            "byteLength" : 1440,
            "byteOffset" : 51284
        },
        {
            "buffer" : 0,
            "byteLength" : 960,
            "byteOffset" : 52724
        },
        {
            "buffer" : 0,
            "byteLength" : 1284,
            "byteOffset" : 53684
        },
        {
            "buffer" : 0,
            "byteLength" : 2628,
            "byteOffset" : 54968
        },
        {
            "buffer" : 0,
            "byteLength" : 2628,
            "byteOffset" : 57596
        },
        {
            "buffer" : 0,
            "byteLength" : 1752,
            "byteOffset" : 60224
        },
        {
            "buffer" : 0,
            "byteLength" : 1608,
            "byteOffset" : 61976
        },
        {
            "buffer" : 0,
            "byteLength" : 1476,
            "byteOffset" : 63584
        },
        {
            "buffer" : 0,
            "byteLength" : 1476,
            "byteOffset" : 65060
        },
        {
            "buffer" : 0,
            "byteLength" : 984,
            "byteOffset" : 66536
        },
        {
            "buffer" : 0,
            "byteLength" : 720,
            "byteOffset" : 67520
        },
        {
            "buffer" : 0,
            "byteLength" : 8508,
            "byteOffset" : 68240
        },
        {
            "buffer" : 0,
            "byteLength" : 8508,
            "byteOffset" : 76748
        },
        {
            "buffer" : 0,
            "byteLength" : 5672,
            "byteOffset" : 85256
        },
        {
            "buffer" : 0,
            "byteLength" : 4644,
            "byteOffset" : 90928
        },
        {
            "buffer" : 0,
            "byteLength" : 144,
            "byteOffset" : 95572
        },
        {
            "buffer" : 0,
            "byteLength" : 144,
            "byteOffset" : 95716
        },
        {
            "buffer" : 0,
            "byteLength" : 96,
            "byteOffset" : 95860
        },
        {
            "buffer" : 0,
            "byteLength" : 60,
            "byteOffset" : 95956
        },
        {
            "buffer" : 0,
            "byteLength" : 1776,
            "byteOffset" : 96016
        },
        {
            "buffer" : 0,
            "byteLength" : 1776,
            "byteOffset" : 97792
        },
        {
            "buffer" : 0,
            "byteLength" : 1184,
            "byteOffset" : 99568
        },
        {
            "buffer" : 0,
            "byteLength" : 960,
            "byteOffset" : 100752
        }
    ],
    "buffers" : [
        {
            "byteLength" : 101712,
            "uri" : "data:application/octet-stream;base64,"
        }
    ]
}
