{
    "asset" : {
        "generator" : "Khronos glTF Blender I/O v1.6.16",
        "version" : "2.0"
    },
    "scene" : 0,
    "scenes" : [
        {
            "name" : "Scene",
            "nodes" : [
                0
            ]
        }
    ],
    "nodes" : [
        {
            "mesh" : 0,
            "name" : "flashlight"
        }
    ],
    "meshes" : [
        {
            "name" : "Cylinder.044",
            "primitives" : [
                {
                    "attributes" : {
                        "POSITION" : 0,
                        "NORMAL" : 1,
                        "TEXCOORD_0" : 2
                    },
                    "indices" : 3
                },
                {
                    "attributes" : {
                        "POSITION" : 4,
                        "NORMAL" : 5,
                        "TEXCOORD_0" : 6
                    },
                    "indices" : 7
                }
            ]
        }
    ],
    "accessors" : [
        {
            "bufferView" : 0,
            "componentType" : 5126,
            "count" : 539,
            "max" : [
                0.2754298746585846,
                0.2754300534725189,
                0.6983724236488342
            ],
            "min" : [
                -0.2754300534725189,
                -0.2754296660423279,
                -0.6136959791183472
            ],
            "type" : "VEC3"
        },
        {
            "bufferView" : 1,
            "componentType" : 5126,
            "count" : 539,
            "type" : "VEC3"
        },
        {
            "bufferView" : 2,
            "componentType" : 5126,
            "count" : 539,
            "type" : "VEC2"
        },
        {
            "bufferView" : 3,
            "componentType" : 5123,
            "count" : 2232,
            "type" : "SCALAR"
        },
        {
            "bufferView" : 4,
            "componentType" : 5126,
            "count" : 83,
            "max" : [
                0.18157345056533813,
                0.21025246381759644,
                0.6929128170013428
            ],
            "min" : [
                -0.18157362937927246,
                -0.18157324194908142,
                0.4921247363090515
            ],
            "type" : "VEC3"
        },
        {
            "bufferView" : 5,
            "componentType" : 5126,
            "count" : 83,
            "type" : "VEC3"
        },
        {
            "bufferView" : 6,
            "componentType" : 5126,
            "count" : 83,
            "type" : "VEC2"
        },
        {
            "bufferView" : 7,
            "componentType" : 5123,
            "count" : 384,
            "type" : "SCALAR"
        }
    ],
    "bufferViews" : [
        {
            "buffer" : 0,
            "byteLength" : 6468,
            "byteOffset" : 0
        },
        {
            "buffer" : 0,
            "byteLength" : 6468,
            "byteOffset" : 6468
        },
        {
            "buffer" : 0,
            "byteLength" : 4312,
            "byteOffset" : 12936
        },
        {
            "buffer" : 0,
            "byteLength" : 4464,
            "byteOffset" : 17248
        },
        {
            "buffer" : 0,
            "byteLength" : 996,
            "byteOffset" : 21712
        },
        {
            "buffer" : 0,
            "byteLength" : 996,
            "byteOffset" : 22708
        },
        {
            "buffer" : 0,
            "byteLength" : 664,
            "byteOffset" : 23704
        },
        {
            "buffer" : 0,
            "byteLength" : 768,
            "byteOffset" : 24368
        }
    ],
    "buffers" : [
        {
            "byteLength" : 25136,
            "uri" : "data:application/octet-stream;base64,"
        }
    ]
}
